<svg width="60" height="60" viewBox="0 0 60 60" fill="none" xmlns="http://www.w3.org/2000/svg">
<path d="M56 13.8731C54.086 14.7231 52.03 15.2951 49.872 15.5531C52.076 14.2331 53.766 12.1431 54.562 9.65109C52.502 10.8731 50.218 11.7611 47.786 12.2411C45.84 10.1671 43.068 8.87109 40 8.87109C34.108 8.87109 29.332 13.6491 29.332 19.5391C29.332 20.3751 29.428 21.1911 29.608 21.9691C20.742 21.5251 12.882 17.2771 7.61805 10.8211C6.70205 12.3971 6.17605 14.2291 6.17605 16.1871C6.17605 19.8871 8.05805 23.1531 10.92 25.0651C9.17205 25.0091 7.52605 24.5291 6.08805 23.7311C6.08805 23.7771 6.08805 23.8191 6.08805 23.8651C6.08805 29.0351 9.76405 33.3471 14.646 34.3251C13.752 34.5691 12.808 34.6991 11.834 34.6991C11.148 34.6991 10.478 34.6311 9.82805 34.5091C11.186 38.7471 15.126 41.8331 19.794 41.9191C16.144 44.7811 11.544 46.4871 6.54405 46.4871C5.68405 46.4871 4.83405 46.4371 3.99805 46.3371C8.72005 49.3631 14.326 51.1291 20.352 51.1291C39.976 51.1291 50.704 34.8731 50.704 20.7751C50.704 20.3131 50.694 19.8531 50.674 19.3951C52.76 17.8891 54.57 16.0111 56 13.8731Z" fill="white"/>
</svg>
