<svg width="60" height="60" viewBox="0 0 60 60" fill="none" xmlns="http://www.w3.org/2000/svg">
<path d="M19.9961 6C12.2781 6 6 12.2839 6 20.0039V40.0039C6 47.7219 12.2839 54 20.0039 54H40.0039C47.7219 54 54 47.7161 54 39.9961V19.9961C54 12.2781 47.7161 6 39.9961 6H19.9961ZM44 14C45.104 14 46 14.896 46 16C46 17.104 45.104 18 44 18C42.896 18 42 17.104 42 16C42 14.896 42.896 14 44 14ZM30 18C36.618 18 42 23.382 42 30C42 36.618 36.618 42 30 42C23.382 42 18 36.618 18 30C18 23.382 23.382 18 30 18ZM30 22C27.8783 22 25.8434 22.8429 24.3431 24.3431C22.8429 25.8434 22 27.8783 22 30C22 32.1217 22.8429 34.1566 24.3431 35.6569C25.8434 37.1571 27.8783 38 30 38C32.1217 38 34.1566 37.1571 35.6569 35.6569C37.1571 34.1566 38 32.1217 38 30C38 27.8783 37.1571 25.8434 35.6569 24.3431C34.1566 22.8429 32.1217 22 30 22V22Z" fill="white"/>
</svg>
